<svg version="1.2" xmlns="http://www.w3.org/2000/svg" viewBox="0 0 800 800" width="800" height="800">
	<defs>
		<linearGradient id="g1" x2="1" gradientUnits="userSpaceOnUse" gradientTransform="matrix(200.76,578.961,-549.898,190.682,618.467,-7.306)">
			<stop offset="0" stop-color="#e4567f"/>
			<stop offset="1" stop-color="#e4097f"/>
		</linearGradient>
	</defs>
	<style>
		.s0 { fill: url(#g1) } 
	</style>
	<path id="&lt;Compound Path&gt;" class="s0" d="m672.07 262.33c-3.75 6.97-9.74 13.72-12.78 19.7-11.76 23.13 5.72 5.41 9.78 17.28 3.34 9.74-11.23 8.45-17 12.1-29.07 18.44 5.79 49.49 29.91 43.78 9.08-2.15 18.13-11.4 27.78-10.88 9.5 0.51 12.7 5.46 9.29 14.87-4.21 11.62-13.75 10.88-23.5 12.31-10.5 1.53-7.46 0.55-14.53 7.77-6.99 7.13-7.23 6.92-17.01 10.31-18.5 6.44-19.41 27.64-1.88 38.17 14.74 8.85 73.93-9.56 70.68 18.46-2.21 19.13-23.76 12.01-35.6 7.64-3.11-1.15-46.11-12.91-43.17-6.48 11.23 24.48-13.6 9.62-22.17 15.51 2.62 7.14 14.85 12.15 11.77 20.62-5.15 14.15-19.92-0.53-26.82-2.2-12.54-3.05-22.63 7.36-19.73 20.07 4.27 18.72 31.89 29.12 45.65 40.2 17.4 14.03 23.71 32.56 15.8 54.07-14.46 39.3-75.61 57.05-111.85 39.17-18.5-9.13-31.06-28.93-41.54-45.9-4.68-7.58-11.28-31.23-23.03-28.89-10.97 2.18-12.04 23.33-10.17 31.21 1.59 6.75 23.52 59.12-2.63 48-25.88-11-1.84-60.62-19.57-75.62-9.88-8.36-6.63 0.65-15.14 4.81-12.23 5.98-2.93-2.2-13.26-5.35-18.75-5.72-3.05 29.36-24.93 25.59-4.36-10.58 0.32-22.83-7.71-32.25-22.44 3.75-29.86 43.05-30.71 61.37-0.58 12.72 4.03 27.7 2.04 39.99-3.59 22.14-23.79 18.15-26.78-2.08-4.15-28.16 38.53-102.58-5.48-118.83-7.17-2.65-7.18-0.75-14.52-0.44-11.55 0.5-4.55 2.36-12.66-4.15-1.89-1.52-0.6-6.39-3.25-7.65-3.23-1.53-4.11 2.77-6.22 2.42-5.99-1-8.75 4.06-13.04-2.84-5.46-8.78 7.64-24.88-1.57-33.28-9.02-8.23-21.22 3.91-27.25 9.95-15.89 15.94-25.85 40.25-43.68 53.77-9.06 6.87-25.41 12.64-27.03-3.48-2.8-27.81 54.54-51.65 68.09-73.27 18.86-30.09-13.48-3.87-19.09-18.33-6.51-16.76 24.92-24.16 23.79-40.63-2.52-36.53-45.07-0.21-59.76 1.61-10.68 1.32-11.99-7.63-7.37-16.56 5.19-10.03 17.39-18.7 3.32-25.87-11.32-5.77-23.86-0.13-35.54-8.96-11.82-8.93-23.86-30.52-1.01-30.24 24.05 0.3 41.39 21.22 64.53 24.3 7.62 1.01 20.55 1.78 23.88-6.98 2.55-6.7-5.22-7.61-4.86-13.25 0.31-4.9 5.4-9.06 8.65-12.18 9.88-9.46 8.9-6.53 4.45-18.78-5.06-13.92-1.82-6 8.68-14.17 14.84-11.55 0.59-27.9-12.64-30.14-16.83-2.85-34.04 3.96-50.06-4.52-20.14-10.67-20.59-36.42 5.62-24.81 8.46 3.75 48.48 32.55 56.67 15.78 4-8.18-14.6-22.25-18.42-29.27 10.57-5.88 29.75 15.73 35.47 3.73 4.02-8.44-12.49-18.14-16.85-22.78-10.08-10.75-17.96-24.57-21.67-38.86 12.92-3.87 28.3 21.73 36.33 29.85 7.67 7.76 29.57 10.37 19.16-5.86 8.91-5.59 11.23 6.47 19.53 4.81 13.44-2.69 3.43-19.05 4.93-27.38 0.96-5.33 2.39-12.46 10.14-11.4 7.27 1.01 3.9 11.95 11.51 13.09 7.35 1.09 6.72-9.65 12.51-11.55 7.89-2.59 13.92 11 16.38-7.63 1.91-14.45-13.17-17.91-15.23-30.24-1.52-9.14 6.71-18.86 16.29-15.66 7.59 2.54 11.11 14.82 12.91 21.57 1.31 4.89 1.03 24.59 8.28 25.62 7.47 1.06 2.42-12.94 10.89-12.12 13.61 1.31-0.48 24.67 22.33 24.39 7.23-0.08 12.59-2.46 19.82-0.53 23.09 6.18 14.94-1.06 27.69-14.9 8.37-9.08 9.36 5.87 12.63 13.44 19.8-8.41 4.22-33.93 13.86-47.4 18.11-25.3 10.26 34.55 9.76 40.88-0.82 10.5 3.75 18.95 14.64 20.09 26.47 2.78 28.96-42.51 34.81-60.36 4.34-13.23 16.97-50.48 36.44-32.41 19.74 18.32-14.38 60.34-17.15 81.15 9.55 0.69 23.3-27.21 30.42-10.86 4.98 11.45-16.1 19.09-10.9 33.01 26.35-13.89-13.6 39.65 17.61 34.68 13.83-2.21 16.69-19.87 27.43-26.63 13.58-8.53 24 1.21 17.13 15.26-5.15 10.5-18.84 17.07-14.55 30.59 12.18-0.04 19.77-13.05 31.65 1.2 5.6 6.72 4.08 13.79 0.38 20.66zm-343.6 318.35c-11.26-10.86-22.94 17.66-23.64 24.17-1.05 10-0.53 26.39 12.18 29.01 7.89 1.63 22.18-0.72 21.44-10.6-0.72-9.71-15.36-10.36-14.7-20.13 0.4-5.84 10.01-17.34 4.72-22.45zm98.1-508.35c-3.65-13.75-1.53-42.33-15.48-50.98-24.13-14.96-2.18 50.99 0.31 62.3 3.38 15.38 2.81 37.37 13.21 48.71 10.43-19.07 7.28-39.93 1.96-60.03zm35.73 683.53c-9.38 6.35-11.97 33.21 4.5 28.58 19.36-5.43-7.19-26.76-4.5-28.58zm275.52-451.81c4.5 10.4 30.41 17.92 28.92 0.88-1.75-20.03-27.63 2.1-28.92-0.88zm-42.51-1.77c2.05 18.16 31.54 3.45 27.92-9.67-4.51-16.37-29.38-3.24-27.92 9.67zm-634.93 207.32c-8.63-10.62-14.77 11.73-16.63 10.54 6.5 4.14 23.97-1.51 16.63-10.54zm-41.25 25.76c8.08 9.44 19.08-10.09 12.04-16.1-8.79-7.5-17.79 9.38-12.04 16.1zm642.36-401.48c-5.57 9.03-17.99 26.59-6.96 36.63 11.06 10.05 21.97-9.17 23.41-18.74 2.88-19.25-0.31-44.05-16.45-17.89zm-233.5 513.68c4.2 23.45 4.58 44.42 3.79 68.53-0.24 7.51-4.29 61.51 9.75 53.83 19.76-10.8 0.55-97.9-0.29-116.35-0.95-20.85-2.22-46.4-10.53-65.62-12.03 11.81-5.48 44.23-2.72 59.61zm-136.11-492.37c7.61-3.69 5.32-15.27 4.25-18.65-1.01-3.19-1.52-7.92-6.26-9.65-0.65-0.23-13.92-2.54-14.11 0-0.2 2.58 2.53 7.18 0.88 9.73-2.51 3.89-9.14 5.64-11.3 9.61-3.16 5.78 15.96 14.1 26.54 8.96zm-205.63 475.38c17.78 1.35 29.82-16.45 44.41-22.86 9.7-4.26 22.09-3.54 13.26-18.58-19.53-33.27-50.04 42.02-57.67 41.44zm461.55-575.45c5.34-9.15 15.78-15.86-0.2-22.83-35.36-15.44-15.78 63.41-22.29 67.43 15.17-9.36 14.45-30.84 22.49-44.6zm-407.92 408.1c-15.5 8.97-31.38 11.35-47.9 17.48-5.84 2.17-36.31 15.9-24.31 20.73 13.29 5.35 35.77-13.63 45.88-20.15 23.46-15.12 50.01-20.46 74.91-31.45-18.9-6.88-32.89 4.31-48.58 13.39zm-67.76-101.42c10.5 2.17 23.15-4.89 32.15-9.42-7.65-3.23-13.37 2.37-21.15 1.45-6.12-0.72-15.47-12.11-21.13-7.84-8.75 6.6 3.85 14.5 10.13 15.81z"/>
	<g id="Layer 1">
		<g id="&lt;Group&gt;">
		</g>
	</g>
</svg>