<svg version="1.2" xmlns="http://www.w3.org/2000/svg" viewBox="0 0 800 800" width="800" height="800">
	<defs>
		<linearGradient id="g1" x2="1" gradientUnits="userSpaceOnUse" gradientTransform="matrix(0,747.886,-738.229,0,782.817,69.914)">
			<stop offset="0" stop-color="#81bd5b"/>
			<stop offset="1" stop-color="#54a45b"/>
		</linearGradient>
	</defs>
	<style>
		.s0 { fill: url(#g1) } 
	</style>
	<g id="Layer 1">
		<g id="&lt;Group&gt;">
			<path id="&lt;Compound Path&gt;" class="s0" d="m630.01 368.9c-0.92 1.94-3.38 4.08-7.94 6.47-15.31 8.03-43.2-5.68-31.85 26.49 4.24 12.02 25.2 22.06 22.37 35.96-3.76 18.47-32.06 8.67-28.36 32.34-6.27-0.66-18.58-1.89-23.57 2.95-7.94 7.71 0.71 9.97-0.75 15.6-6.1 23.6-12.1 8.02-30.08 16.42 10.85 24.38-6.34 19.02-22.94 20.94-1.16 26.51 6.02 43.73 25.12 61.1 13.24 12.05 37.74 28.89 22.51 48.47-33.73 43.37-77.25-86.72-97.37-97.24-27.61-14.46-13.94 12.87-27.1 18.43-9 3.8-9.2-19.19-19.89-17.01-10.72 2.19-1.8 27.31-14.12 27.6-13.26 0.33-3.81-27.59-21.86-10.17-11.19 10.81-6.1 31.42-6.36 44.91-0.29 15.03-4.46 27.79-6.85 42.35-1.02 6.24-5.01 87.66-19.53 65.96-10.4-15.55-0.54-36.09 0.39-52.7 0.87-15.48-4.57-28.68-2.47-43.71 2.94-20.94 25.16-59.77-9.17-67.12-13.44-2.87-27 9.27-28.01-11.29-21.03-0.21-23.33 11.66-34.92 25.12-7.2 8.36-27.58 23.72-25.94 3.11 1.62-20.31 50.47-30.06 45.31-51.7-1.9-7.95-16.39-7-18.99-14.38-3.73-10.58 16.9-26.8 10.95-36.74-1.92-3.21-19.47-5.26-19.66-4.24 4.23-23.56-5.87-16.99-18.86-26.98-17.23-13.25 3.63-7.74-2.46-25.85-8.48-25.22-43.37 11.73-55.89 15.03-34.97 9.22-16.64-22.04 3.32-30.32 9.37-3.88 18.85-5.72 27.75-10.9 14.23-8.29 10.85-7.56 12.42-19.28 0.48-3.59-6.86-6.17-5.46-11.87 1.17-4.8 11.13-4.66 12.93-8.75 7.78-17.64-19.88-39.66-11.9-54.03 10.38-18.7-7.62-24.83-21.96-29.75-23.66-8.12-46.36-14.16-57.03-39.6-7.7-18.35-5.23-32.94 14.87-21.47 16.84 9.62 26.4 31.64 39.63 45.26 14.24 14.66 30.71 21.92 50.62 25.87 3.12-11.48-5.99-23.48-3-33.58 2.82-9.51 13.26-11.93 18.74-19.85 5.57-8.04 8.46-14.77 14.66-22.37 9.1-11.17 12.33-9.56 5.63-26.48-3.78-9.53-19.22-23.33-14.93-34.78 4.94-13.21 14.83-8.56 22.06-0.36 13.48 15.32 7.12 36.56 33.79 37.33 39.4 1.13 15.95-39.88 17.09-65.28 23.48-1.89 15.64 30.59 24.27 42.04 14.32 19.02 21.1-5.39 32.62-13.95 10.7 13.22 18.15 11.61 25.02-1.17 2.67-4.95 5.53-35.31 18.8-14.91 6.35 9.75-11.19 28.49 3.76 35.23 13.5 6.09 16.44-13.26 24.95-19.1 15.33 20.08 21.99-18.17 26.88-27.58 8.6-16.52 22.46-33.21 41.49-36.84 5.27 36.33-39.5 53.44-39.48 85.3 6.76 1.31 14.62 0.16 20.36-1.38 2.6 20.04-10.46 55.76 24.32 38.91 18.79-9.11 29.11-32.47 52.01-33.14 5.58-0.16-33.22 51.27-34.16 54.77-4.07 15.15 8.08 30.15 5.32 45.19-2.61 14.29-13.31 17.46-7.14 32.46 11.01 26.78 53.68 27.71 76.47 23.39 35.67-6.76 65.75-31.41 101.59-36.46 32.64-4.59 65.32 17.56 51.7 53.65-14.58 38.67-56.24 29.33-88.03 22.1-17.45-3.97-35.44-9.61-53.51-9.42-8.27 0.09-16.33 1.34-24.39 3.14-1.94 0.43-27.61 9.15-23.89 10.89 8.38 3.91 34.13 8.45 30.1 16.97zm-478.69 205.45c35.47 15.77 107.19-42.03 61.32-84.53-31.56-29.24-82.08 20.95-79.03 54.86 1.45 16.15 8.31 25.49 17.71 29.67zm499.36-331.48c35.2-16.2-8.93-79.92-35.02-68.82-12.87 5.47-13.26 21.92-14.55 33.7-1.39 12.6-20.27 25.63-16.58 36.48 2.21 6.51 12.55 10.53 18.8 8.86 7.84-2.09 6.6-9.42 11.86-12.83 11.84-7.68 22.17 8.74 35.49 2.61zm46.39 273.9c8.91-26.66 8.37-57.14-8.93-72.29-9.62-8.42-21.45-12.59-28.13 0.69-6.34 12.61-1.74 25.8 1.15 38.44 2.75 12.05 4.45 24.16-2.05 34.71-6.16 10.01-15.04 18.84-14.14 31.62 0.79 11.21 8.14 17.93 18.59 12.59 14.48-7.41 26.73-25.48 33.51-45.76zm-663.99 20.52c-8.93-6.11-33.68 1.02-23.79 14.02 11.61 15.27 21.23-15.77 23.79-14.02zm84.08-68.46c-19.34 11.95-37.82 19.65-59.49 27.41-6.76 2.42-56.1 17.77-44.37 27.54 16.53 13.76 87.09-33.86 103.17-41.08 18.17-8.16 40.4-18.25 54.55-32.38-14.7-6.53-41.18 10.67-53.86 18.51zm14.19-340.18c5.82-11.69-16.02-8.2-15.72-10.29-1.04 7.29 10.77 20.23 15.72 10.29zm-38.67-25.67c-5.02 10.75 16.3 12.6 18.74 4.1 3.05-10.59-15.18-11.75-18.74-4.1zm7.24 128.79c-3.04-16.74-22.37-23.58-31.8-35.51-6.28-7.94-8.6-19.55-20.36-7.77-26.03 26.04 50.86 36.09 52.16 43.28zm103.12-52.35c-13.92-9.93-22.26-22.79-34.11-34.73-4.19-4.22-28.15-25.26-27.61-12.93 0.61 13.66 25.97 25.7 35.63 31.91 22.4 14.4 37.53 35.37 56.91 52.67-1.49-19.14-16.74-26.88-30.82-36.92zm61.37-98.93c2.25 9.98 13.39 18.18 20.87 24.21-0.21-7.92-7.33-10.68-9.61-17.8-1.79-5.6 4.42-18.22-1.53-21.46-9.19-5-11.08 9.08-9.73 15.05zm122.02-22.5c-0.58-11.63 11.91-29.3 6.7-38.95-4.73-8.76-15.15-8.69-22.06-3.38-15.15 11.68-8.09 60.45 2.49 73.42 22.77 27.91 13.42-20.02 12.87-31.09zm192.55 59.26c8.11-5.12 29.72-14.21 25.44-27.04-1.92-5.78-4.52-8.7-7.42-9.57-15.83-4.76-40.97 51.09-18.02 36.61zm-122.22 484.27c-6.36 18.2 17.66 27.59 23.16 9.99 4.95-15.83-16.6-28.74-23.16-9.99zm57.2 166.88c-6.36 18.19 17.65 27.59 23.15 9.99 4.96-15.83-16.6-28.74-23.15-9.99zm-7.63-24.29c-2.34 5.01-4.96 9.78 0.54 14.7 7.82 7.02 19.74 1.71 20.35-8.51 0.53-8.83-6.84-19.21-13.29-24.39-3.82-3.07-5.11-5.04-6.45-9.87-1.01-3.65-1.24-13.23-5.72-14.81-5.63-2-6.51 6.06-6.13 9.9 0.76 7.81 6.15 13.23 10.69 19.06 3.89 5 2.05 9.55 0.01 13.92zm-33.42-49.01q0.77 0.78 1.69 1.38c7.09 4.58 12.9-5.67 16.04-10.95 5.5-9.26 14.33-32.72 7.42-42.25-4.17-5.75-14.83-3.93-20.6-1.92-10.24 3.57-25.06 12.61-27.27 24.22-1.7 8.9 5.02 9.98 11.31 13.35 6.08 3.26 6.96 11.67 11.41 16.17z"/>
		</g>
	</g>
</svg>