<svg version="1.2" xmlns="http://www.w3.org/2000/svg" viewBox="0 0 800 800" width="800" height="800">
	<defs>
		<linearGradient id="g1" x2="1" gradientUnits="userSpaceOnUse" gradientTransform="matrix(345.724,615.986,-543.753,305.183,529.54,-94.609)">
			<stop offset="1" stop-color="#990099"/>
		</linearGradient>
	</defs>
	<style>
		.s0 { fill: url(#g1) } 
	</style>
	<path id="&lt;Compound Path&gt;" class="s0" d="m297.11 329.35c3.03-29.21-41.74-29.52-39.19-59.98 2.93-34.98 48.73-7.45 61.95-33.01 15.75-30.48-32.77-94.32-43.8-120.24-3.8-8.94-21.13-45.23-9.72-54.33 12.29-9.8 25.52 15.56 30.3 23.99 27.24 48.02 39.29 107.31 33.8 162.39-1.71 17.1-14.07 54.53 8.92 61.74 19 5.96 36.12-16.78 48.44-26.52 14.1-11.16 61.5-29.7 66.33 4.7 2.56 18.23-16.91 30.92 2.23 44.5q2.11 1.5 4.88 3.02c15.04 8.22 29.06 21.57 46.5 22.9 22.06 1.67 51.81-2.18 61.34 25.08 9.66 27.64-12.61 36.43-32.64 40.25-67.77 12.94 19.64 57.85-13.81 73.71-8.88 4.2-20.74-2.22-25.65 10.25-5.47 13.91 5.05 13.55 14.64 17.01 16.7 6.02 50.35 25.8 18.55 43.34-20.71 11.43-44.36-13.99-65.09-16.83-23.9-3.28-37.77 14.51-40.09 36.49-2.55 24.29 14.28 45.61 32.65 59.9 29.25 22.76 68.86 54.4 51.28 97.13-22.28 54.16-80.22 13.91-96.05-21.94-19.16-43.4-0.88-89.7-15.24-132.24-6.51-19.29-26.19-31.42-46.7-27.11-10.36 2.17-21.8 17.07-31.72 7.3-8.47-8.33 0.22-17.86-12.81-23.86-8.31-3.83-22.05 1.26-29.56 4.12-17.59-11.86 1.49-23.27-2.06-37.35-6.22-24.64-35.74-13.88-48.96-4-14.72 11-32.95 16.66-37.93-8.67-5.21-26.58 13.47-29.72 34.61-31.78 12.04-1.18 58.65-7 28.42-25.42-16.47-10.04-43.94 2.82-61.57 2.89-15.58 0.06-52.53-6.55-49.25-29.94 3.03-21.55 33.21-15.46 47.15-11.21 17.66 5.4 44.76 21.52 63.57 14.17 22.63-8.84 17.3-37.22-8.27-33.59-10.08 1.43-18.02 9.85-28.87 4.08-10.84-5.75-12.62-18.44-5.9-28.2 18.35-26.67 41.26 7.76 61.5 2.37 13.3-3.55 26.44-21.82 27.82-35.11zm257.89 18.01c21.94 12.61 30.78-18.28 50.71-17.13 11.89 0.69 25.37 19.16 30 1.35 3.28-12.64-7.05-23.76 9.46-28.36 10.01-2.79 40.48 1.38 22.86-19.94-8.23-9.96-24.19-16.01-5.59-27.06 8.07-4.79 30.92-3.44 29.85-17.7-1.47-19.54-26.49-4.59-33.99-1-5.13 2.45-13.6 7.03-19.07 2.45-6.21-5.21-0.78-9.89-0.48-15.97 0.41-8.14 0.31-6.39-3.3-13.17-3.13-5.88-7.86-3.81-5.24-11.82 4.86-14.82 32.91-15.01 44.38-18.66 16.52-5.25 31.39-32.5 7.61-40.98-18.1-6.45-25.68 19.89-34.07 30.35-4.05 5.05-13.8 16.41-21.29 11.37-6.48-4.36-2.17-12.53-11.67-16.44-6.28-2.58-13.65 0.83-20.01-2.76-11.97-6.75-2.62-32.16-14.56-34.44-10.02-1.91-15.62 18.18-22.11 23.03-16.88 12.61-21.88-6.52-16.83-20.26 7.56-20.56 43.49-34.37 33.46-59.52-6.99-17.53-31.82-16.83-45.64-9.24-18.54 10.18-23.16 29.55-18.64 48.92 3.09 13.21 16.24 53.27-13.22 41.31-6.25-2.54-48.38-33.61-44.51-4.71 1.54 11.52 14.14 8.47 22.11 9.58 12.45 1.74 32.65 22.83 16.12 31.35-8.51 4.4-31.08-9.48-35.28 3.59-3.03 9.55 15.56 13.45 16.49 22.08 1.3 12.07-12.13 10.67-19.95 12.46-7.11 1.63-22.04 6.31-12.17 15.32 7.36 6.72 18-2.39 24.57-5 30.79-12.24 3.95 12.23 8.45 22.48 2.27 5.15 9.21 5.62 11.13 9.82 3.25 7.1-1.31 14.58-4.2 21.09-6.04 13.58-17.59 28.15-2.17 39.81 16.72 12.65 38.11-6.22 56.78 1.07 2.81 1.1 5.04 2.68 7.02 4.47 4.45 4.04 7.6 9.15 12.99 12.26zm88.25 31.79c-8.46 14.61-23.02 30.15-38.97 36.49-9.53 3.79-29.03 7.44-28.52 21.33 0.25 6.78 1.42 7.54-2.41 12.6-2.78 3.67-7.14 6.49-10.16 10.09-6.02 7.15-11.27 16.18-9.13 25.88 3.52 15.96 14.27 1.75 17.58-6.12 2.18-5.17 5.56-20 14.14-13.94 6.86 4.85 6.07 24.11 18.34 22.71 5.68-0.64 10.68-7.63 11.66-12.75 1-5.21-2.84-10.23 3.64-12.86 6.16-2.49 14.57 4.68 20.01 6.97 16.01 6.71 28.88 8.12 42.88-4.17 3.61-3.18 11.57-9.43 11.22-15.02-0.31-5.08-5.57-7.08-8.71-10.27-10.38-10.56 0.81-11.98 2.53-22.69 3.37-20.95-37.25-13.01-14.62-37.25 7.6-8.14 39.4-32.33 18.01-43.11-22.76-11.48-39.45 28.21-47.42 42q-0.03 0.05-0.07 0.11zm-491.45-169.74c-22.12-18.23-8 13.46-2.02 22.81 15.51 24.2 36.71 43.11 62.76 55.23 12.11 5.63 25.53 9.66 36.9 16.76 5.76 3.59 10.69 10.99 17.3 11.9 3.95-18.42-44.14-45.01-56.72-53.47-22.45-15.11-37.67-36.3-58.22-53.23zm1.35 82.43c6.06 3.43 35.48 12.05 35.69 1.14 0.16-8.01-28.02-23.41-35.58-19.27-8.12 4.46-6.49 14.51-0.11 18.13zm-43.19-66.08c3.72 3.38 25.78 16.75 25.17 4.78-0.29-5.66-22.22-19.58-27.92-19.29-9.56 0.49-1.47 10.68 2.75 14.51zm-26.16-26.73c10.78 15.36 22.41-7.56 7.05-15-11.4-5.52-11.77 8.27-7.05 15zm21.4 7.23c8.26 11.78 17.17-5.78 5.4-11.49-8.74-4.23-9.02 6.34-5.4 11.49zm512.35 383.34c-10.27 0.81-16.24 5.09-18.97 11.03-10.26 22.41 25.92 68.35 53.23 39.54 18.79-19.83-12.71-52.27-34.26-50.57zm-102.13 41.03c2.9-6.22-4.12-20.99-11.24-13.45-8.37 8.85 12.07 11.67 11.24 13.45zm51.59 45.59c-9.49-10.88-16.23-21.66-23.33-34.43-2.22-3.98-16.94-33.3-21.84-24.94-6.91 11.77 30.22 51.05 36.41 60.37 6.99 10.54 15.61 23.43 25.92 30.82 2.57-9.88-10.94-24.69-17.16-31.82zm155.22-50.82c5.33 15.18 29.57 12.72 23.79-5.66-5.6-17.83-29.71-11.21-23.79 5.66zm-120.09-86.7c-0.07 3.29 1.18 6.66 4.02 9.21 6.38 5.74 18.7 6.43 26.53 4.66 4.63-1.05 6.9-0.83 11.38 1.07 3.38 1.44 10.78 7.05 14.69 4.61 4.92-3.07-0.67-8.6-3.81-10.64-6.38-4.13-13.75-3.32-20.91-3.4-6.15-0.07-8.49-4.21-10.57-8.4-2.38-4.81-4.42-9.67-11.47-8.48-4.57 0.77-7.62 3.76-9 7.37-0.02-2.31-0.76-4.92-2.56-7.78-9.96-15.81-31.59-3.27-21.57 11.53 6.42 9.48 19.79 7.85 23.27 0.25zm95.32 23.61c-6.62 0.99-12.18-5.03-18.24-5.95q-1.05-0.16-2.12-0.09c-8.16 0.55-6.74 11.89-6.11 17.81 1.09 10.39 7.83 33.75 18.73 37.15 6.56 2.04 13.8-5.55 17.12-10.45 5.89-8.72 12.17-24.34 7.16-34.64-3.85-7.9-9.7-4.86-16.54-3.83zm-340.78-418.28c2.08-0.77 3.89-2.39 4.8-4.8 2.02-5.43-0.6-13.34-3.65-17.82-1.8-2.65-2.22-4.13-2.13-7.42 0.06-2.48 1.76-8.52-0.74-10.37-3.15-2.33-5.24 2.55-5.75 5.03-1.01 5.03 1.32 9.46 3.04 13.98 1.48 3.87-0.55 6.37-2.66 8.71-2.43 2.69-4.98 5.18-2.49 9.31 1.61 2.68 4.25 3.86 6.86 3.83-1.45 0.58-2.91 1.69-4.26 3.53-7.47 10.17 5.76 20.66 12.58 10.7 4.37-6.38 0.04-14.37-5.6-14.68zm-8.75-65.73c2.26 3.91-0.15 8.9 0.78 12.94q0.16 0.69 0.46 1.35c2.37 4.99 9.14 1.29 12.71-0.56 6.25-3.26 19.26-13.27 18.7-20.96-0.34-4.63-6.9-7.3-10.8-8.17-6.94-1.55-18.3-1.63-23.53 4.07-4.02 4.37-0.65 7.29 1.68 11.33zm-144.96 652.8c-23.02-17.15-5.13 23.55-8.84 21.8 12.93 6.1 28.43-7.2 8.84-21.8zm-25.67 22.63c-19.65-11.61-11.62 19.97 3.31 30.76 20.99 15.19 12.44-21.46-3.31-30.76zm72.52-119.74c-9.22 18.81-26.46 26.02-40.22 39.99-4.87 4.94-27.45 35.02-6.82 41.29 22.85 6.95 29.37-30.89 34.61-44.35 12.17-31.2 39.46-45.67 58.18-69.82-31.65-8.6-36.43 13.85-45.75 32.89zm-147.64-177.66c-6.88 3.59-3.42 11.24-7.84 16.04-4.86 5.29-42.22 4-24.34 20.64 13.92 12.95 33.69-10.77 47.16-13.75 6.82-1.51 32.85-3.78 36.59-10.81 5.41-10.16-18.89-6.19-23.83-7.19-7.36-1.47-20.31-8.8-27.74-4.93zm-43.45 7.33c4.05 5.26 3.58 4.46 9.93 4.72 6.05 0.25 28.11 0.57 17.19-10.08-4.03-3.94-9.39-2.37-14.27-3.7-4.22-1.14-10.96-7.94-15.12-7.46-10.09 1.17-0.93 12.36 2.27 16.52zm570.06-386.68c-4.75 7.88-20.93 52.29 0.36 46.94 10.07-2.53 27.3-46.9 24.76-57.03-4.28-17.03-19.73 1.15-25.12 10.09zm38.77-56.52c-23.8 24.84 21.53 37.59 29.45 7.34 5.88-22.46-19.03-18.22-29.45-7.34zm5.12 59.79c-18.23 19.04 16.51 28.81 22.57 5.62 4.51-17.2-14.58-13.95-22.57-5.62z"/>
	<g id="Layer 1">
		<g id="&lt;Group&gt;">
		</g>
	</g>
</svg>