<svg version="1.2" xmlns="http://www.w3.org/2000/svg" viewBox="0 0 800 800" width="800" height="800">
	<defs>
		<linearGradient id="g1" x2="1" gradientUnits="userSpaceOnUse" gradientTransform="matrix(0,845.385,-884.503,0,802.751,-9.621)">
			<stop offset=".005" stop-color="#ffa51d"/>
			<stop offset="1" stop-color="#ef7f1b"/>
		</linearGradient>
	</defs>
	<style>
		.s0 { fill: url(#g1) } 
	</style>
	<g id="Layer 1">
		<path id="&lt;Compound Path&gt;" class="s0" d="m668.43 355.66c-25.63 3.9-51.19 14.62-77.41 12.93-20.26-1.31-48.38-17.19-22.08-34.75 20.04-13.38 116.59-2.48 107.27-47.29-34.2 0.31-59.92 15.8-90.61 28.15-5.81 2.34-17.15 8.39-23.22 3.5-6.34-5.1 0.32-13.15-3-18.07-8.01-11.88-29.18 7.53-33.77-13.98-6.48-30.35 65.53-42.66 38.72-74.1-10.74-12.59-25.61-0.09-30.46 10.55-7.45 16.34-18.17 56.52-45.01 31.24-23.12-21.77 12.47-72.19 24.25-92.26 8.57-14.59 38.81-53.01 30.71-71.9-8.05-18.77-25.6 1.27-32.28 11.74-13.75 21.56-15.76 47.54-21.32 71.82-1.99 8.71-4.85 30.78-18.04 28.59-9.99-1.65-6.74-18.24-12.28-20.87-5.14-2.43-3.25 48.73-26.26 45.21-18.58-2.84-13.85-26.67-14.06-40.84-0.22-14.13-3.25-34.63-21.72-19.55-8.1 6.62-6.04 19.83-2.66 27.66 3.93 9.11 9.64 17.63 5.29 27.7-3.49 8.07-14.24 15.84-23.78 11.83-19.68-8.28-6.12-41.56-23.65-53.2-16.07-10.68-26.5 18.32-24.09 29.03 3.11 13.8 20.83 21.83 25.99 34.98 2.18 5.55 2.32 11.26-5.27 13.2-11.41 2.92-13.44-10.29-21.27-12.66-10.64-3.22-16.22 5.85-10.29 12.91 8.44 10.03 22.65 26.3-2.73 17.24-17.92-6.4-27.31-23.27-36.14-38.77-7.91-13.88-36.21-49.95-23.99-10.11 3.69 12.01 41.46 41.51 34.69 53.28-5.43 9.43-19.38-13.12-29.38-12.83 1.13 14.41 21.99 25.46 13.67 41.48-6.23 11.97-22.21 11.36-34.35 11.04-22.35-0.59-48.69-16.36-69.59-2.17-11.66 7.92-14.17 24.71-1.25 32.64 14 8.6 36.42 3.57 51.93 2.55 17.59-1.15 53.13-7.72 61.46 14.05 5.68 14.85-14.48 20.76-16.2 35.07-2.3 19.17 2.73 31.25-22.78 35.04-14.94 2.21-33.03 0.86-45.69 10.85-10.03 7.9-12.1 14.94 1.25 17.75 18 3.74 47.23-21.4 64.73-10.5 14.33 8.94-13.47 28.96-20.8 32.63-16.28 8.14-35.96 7.78-52.86 14.01-24.83 9.16-59.96 33.1-67.64 59.79-5.85 20.32 12.69 25.68 28.19 17.86 12.76-6.44 23.94-20.05 34.81-29.1 9.03-7.52 99.15-81.54 104.87-67.18 3.58 9-19.55 22.65-22.35 30.31-5.19 14.19 7.31 13.9 6.96 25.52-0.27 9.14-14.48 14.49-20.5 20.54-8.11 8.13-15.84 22.41-14.38 34.06 2.14 17.09 36.73-25.51 37.46-26.58 7.34-10.77 17.77-31.08 30.93-19.9 10.61 9.01 8.46 20.14 22.48 25.75 9.39 3.75 20.1-0.25 22.17 12.1 2.09 12.53-26.57 34.72-14.05 46.11 14.07 12.8 22.21-45.23 36.06-20.72 10.11 17.89-1.92 58.67-4.19 77.2-2.41 19.63-16.48 80.61 2.9 95.86 19.72 15.5 32.74-31.95 34.99-44.05 5.33-28.7-1.47-53.97-10.21-81-6.57-20.3-13.3-45.81-4.52-66.7 5.19-12.34 12.95-15.8 18.85-0.97 12.64-2.8 5.22-28.18 23.11-22.37 16.96 5.51 19.58 56.48 24.15 71.98 8.25 27.97 19.01 55.32 34.36 80.2 13.82 22.41 38.37 55.44 68.67 53 23.68-1.92 34.11-25.79 31.91-47.08-5.61-54.43-57.68-55.27-96.61-71.71-20.67-8.73-38.26-44.82-23.35-66.16 11.23-16.06 33.52 2.03 47.21 8 2.95-16.9-9.23-27.39-22.2-35.26-8.35-5.06-14.84-2.61-15.69-15.07-3.19-46.55 48.34 12.01 55.49 18.3 14.14 12.43 41.18 46.64 50.41 10.72 2.94-11.46-5.84-19.3-14.44-25.82-12.34-9.36-52.03-24.32-40.96-45.05 13.06-24.49 45.76 8.38 63.77 5.85 25.88-3.64 8.94-31.51-5.35-39.78-13.36-7.73-42.55-2.16-31.38-22.14 3.32-5.94 16.05-9.43 13.97-18.08-1.88-7.82-16.23-7.85-21.59-11.47-36.06-24.32 41.73-36.76 54.2-36.48 33.1 0.76 127.89 60.62 145.57 5.3 14.02-43.89-64.89-33.78-85.75-30.6zm-63.93-93.67c10.51 7.01 28.93 1.66 40.15-1.22 21.61-5.55 3.29-30.02-10.87-32.95-2.84-0.59-6.18-0.27-9.72 0.73-14 3.95-38.68 20.68-19.56 33.44zm-299.15-106.05c0.68-19.81-10.28-28.9-31.9-24.85q-1.03 0.19-2.01 0.44c-56.93 14.39 31.03 107.11 33.91 24.41zm-133.11 220.83c-9.92-1.08-14.91 3.41-13.72 13.1q0.06 0.46 0.14 0.9c5.03 25.67 55.03-9.53 13.58-14zm458.58 182.79c2.91 11.44 10.7 15.03 22.4 9.54q0.56-0.26 1.08-0.54c30.18-16.58-35.63-56.74-23.48-9zm-325.48 67.81c-1.49 20.12-12.93 36.79-30.84 42.11-7.62 2.26-16.4 2.48-26.09 0.03-25.99-6.55-26.78-42.71-0.46-50.91 8.17-2.54 16.91 1.77 24.6-0.38 7.8-2.19 8.1-6.9 13.47-11.67 16.6-14.75 20.13 9.85 19.32 20.82zm155.06-541.39c-3.92-10.64-15.64-7.05-21.77-14.34-6.74-8.02 2.06-61.86-25.34-39.07-21.34 17.75 9.32 50.77 11.13 70.83 0.91 10.15-0.63 48.26 8.85 54.98 13.7 9.71 12.47-26.2 14.83-33.17 3.5-10.38 16.52-27.77 12.3-39.23zm-2.53-64.27c-8.38 4.89-7.13 4.35-8.69 13.5-1.48 8.72-6.04 40.59 11.41 26.76 6.44-5.11 5.17-13.15 7.99-19.97 2.45-5.9 13.53-14.39 13.61-20.51 0.19-14.81-17.71-3.64-24.32 0.22zm-224.2 258.86c18.05-8.22 9.22-13.62-4.21-21.1-6.48-3.62-13.66-10.84-21.17-14.01-14.3-6.03-30.66-5.13-45.88-4.33-0.05 19.72 16.86 12.46 26.21 21.2 8.25 7.71 0.27 19.82 12.39 25.68 8.41 4.08 25.04-3.96 32.66-7.44zm-162.24-105.44c-20.95 7.18 14.3 31.93 21.12 35.54 17.88 9.46 37.45 11.35 56.45 17.05l1.47 1.47c6.25 0.31 11.26-2.66 11.46-8.54-33.04-12.68-68.67-12.72-90.5-45.52zm-37.93 28.18c2.91 3.64 7.58 7.04 10.8 7.94 11.37 3.19 29.51-8.76 10.98-13.59-0.79-0.21-18.82-4.6-17.71-4.69-8.61 0.73-7.77 5.72-4.07 10.34zm581.66-112.1c-0.47-16.44 14.09-27.7 11.21-44.97-26.44 0.69-39.98 64.22-49.98 83.47-8.2 15.77-16.98 16.54-29.7 25.55-9.63 6.81-25.37 39.95-5.44 40.24 18.39 0.27 34.53-40.92 43.26-53.87 8.48-12.56 67.33-42.32 30.65-50.42zm147.84 395.43c9.78-8.29 3.33-10.1-6.34-12.38-4.68-1.1-10.42-4.33-15.65-4.97-9.96-1.23-19.97 2.21-29.3 5.4 3.45 12.27 12.69 4.77 20.05 8.56 6.49 3.34 3.66 12.28 12.24 13.79 5.95 1.05 14.88-6.89 19-10.4zm-119.53-36.94c-11.76 8.17 14.53 17.34 19.41 18.38 12.79 2.72 25.3 0.45 38.13 0.64l1.16 0.65c3.95-0.91 6.54-3.64 5.63-7.33-22.79-2.05-44.96 4.21-64.33-12.34zm-18.62 24.23c2.46 1.75 5.96 3.04 8.13 3.03 7.63-0.03 16.8-10.66 4.42-10.39-0.53 0.01-12.52 0.46-11.84 0.21-5.23 1.97-3.82 4.93-0.71 7.15zm-511.02 153.29c-10.73-12.83 14.24-21.3 23.67-15.48-2.7-1.67-11.06 30.55-23.67 15.48zm41.77-14.48c-10.25-8.49 5.15-36.78 16.96-23.38 8.39 9.53-4.19 33.97-16.96 23.38z"/>
	</g>
</svg>