<svg version="1.2" xmlns="http://www.w3.org/2000/svg" viewBox="0 0 800 800" width="800" height="800">
	<defs>
		<linearGradient id="g1" x2="1" gradientUnits="userSpaceOnUse" gradientTransform="matrix(443.792,539.498,-446.234,367.074,411.663,-0.006)">
			<stop offset="1" stop-color="#3366cc"/>
		</linearGradient>
	</defs>
	<style>
		.s0 { fill: url(#g1) } 
	</style>
	<g id="Layer 1">
		<g id="&lt;Group&gt;">
			<path id="&lt;Compound Path&gt;" class="s0" d="m225.6 362.95c16.52 3.09 27.42 18.99 24.33 35.52-3.09 16.52-18.99 27.41-35.52 24.32-5.23-0.97-9.89-3.24-13.73-6.4-28.74-23.61-71.89-15.08-89.5 17.67-10.27 19.25-32.16 30.51-54.75 26.29-27.88-5.21-46.26-32.04-41.05-59.93 5.22-27.88 32.05-46.26 59.93-41.05 11.94 2.23 22.12 8.45 29.47 17l-0.01-0.05c24.31 28.19 68.33 27.13 91.26-2.19v0.02c6.78-8.66 18.01-13.36 29.57-11.2zm328.55-235.05c-12.84-9.39-30.86-6.59-40.25 6.25-16.13 22.05 20.49 108.98-22.78 115.86-18.01 2.86-13-28.93-30.31-23.98-20.04 5.72 9.74 27.07-6.56 33.55-21.15 8.42-35.35-63.21-36.79-73.28-1.74-12.15-1.33-26.16-11.55-35.25-24.65-21.92-39.51 19.75-35.65 40.62 2.3 12.46 24.04 28.23 18.87 40.73-3.67 8.85-16.49 4.16-19.63 13.23-3.11 8.98 9.35 21.34 6.87 31.29-4.37 17.29-30.35-5.59-30.58 13.69-0.19 15.46 35.17 15.26 35.21 31.79 0.07 38.46-71.15-23.88-77.99-30.23-25.85-24.01-49.7-56.42-79.46-75.66-18.3-11.83-68.29-49.89-92.45-35.8-31.94 18.62 10.52 70.05 26.28 83.58 34.65 29.75 81.6 40.24 124.43 51.59-36.88-2.13 20.49 21.81 30.32 23.99 10.55 2.34 29.23 11.49 29.11 24.4-0.19 19.58-21.69 13.19-33.39 13.74-6.56 0.31-17.6 0.87-16.89 11.53 0.71 10.61 10.66 6.71 16.21 10.5 8.41 5.75 16.22 1.43 10.01 13.89-5.07 10.18-32.87 18.23-43.43 18.68-11.56 0.5-44.46 1.96-40.41 21.19 7.56 35.84 69.2-19.45 83.65 12.42-15.47 1.71-23.14 8.99-9.37 17.58 13.83 8.62 26.9-6.92 25.3 18.09-2.19 34.18-52.75 42.11-73.42 60.88-21.8 19.83-43.76 83.65 3.41 90.54 35.69 5.21 58.33-37.66 73.32-63.01 5.65-9.56 27.35-59.17 43.98-35.39 7.76 11.1-7.71 29.26 14.55 22.01 17-5.55 15.01-28.93 36.2-13.06 15.98 11.96 7.83 34.17 18.81 46.48 21.33 23.94 13.92-17.63 16.49-27.22 2.79-10.44 14.81-23.71 26.6-18.38 11.18 5.05 9.59 23.6 10.03 33.44 0.91 20.49-9.82 59.78 12.81 72.75 39.59 22.69 65.02-49.09 35.87-75.65-7.26-6.61-73.42-68.51-32.92-74.84 19.23-3.01 25.48 40.21 40.19 34.51 26.85-10.39-23.63-32.02-26-36.13-15.02-26.05 24.09-4.63 30.68-8.14 6.33-3.37-18.68-18.58 10.71-17.36 24.97 1.04 54.71 10.26 76.05 23.11 17.34 10.46 41.96 34.14 64.01 23.54 27.23-13.1-37.04-30.45-47.09-33.76-6.13-2.01-25.35-6.86-22.32-17.25 3.03-10.41 25.16-2.04 31.69-1.12 24.77 3.5 65.22-7.32 67.13-38.13 2.26-36.6-45.97-40.58-71.47-39.01-32.91 2.04-82.88 29.72-112.03 8.63-17.31-12.51-4.14-29.67 12.97-30.25 10.55-0.36 42.21 3.2 22.57-20.15-3.82-4.53-16.47-6.08-26.53-9.39-9.69-3.2-16.97-8.05-11.56-18.81 7.93-15.75 56.28 7.03 72.12-0.64 25.33-12.28 16.91-51.28-1.61-65.27-22.13-16.72-52.49-7.87-77.46-3.35-11.61 2.11-19.44-5.95-22.87-10.61-20.76-28.42-10.4-68.73 21.5-83.61 4.26-1.98 8.1-5.03 11.07-9.1 9.39-12.84 6.59-30.86-6.25-40.25zm-174.13 564.01c-18.65 11.78-24.22 36.46-12.43 55.11 11.78 18.65 36.45 24.21 55.1 12.43 18.65-11.79 24.22-36.46 12.44-55.11-11.79-18.65-36.46-24.22-55.11-12.43zm39.3-30.53c-6.02 4.96-14.89 4.09-19.84-1.93-4.96-6.02-4.09-14.89 1.93-19.85 6.02-4.95 14.89-4.09 19.85 1.94 4.95 6.02 4.09 14.89-1.94 19.84zm-209-482.19c-11.87-1.47-44.17-1.41-42.9-20.49 1.2-17.93 27.22-3.03 35.06-0.16 23.38 8.55 6.01-17.2 21.47-21 7.9-1.94 12.15 5.38 16.42-4.88 1.29-3.11 1.13-7.33 4.55-9.03 3.76-1.88 10.41 1.79 13.66 3.36 12.59 6.08 15.38 15.39 15.42 28.42 0.01 4.43-2.49 12.34 1.04 15.86 3.7 3.71 6.06-0.41 9.94-1.24 3.83-0.83 10.12 0.59 12.23 4.32 4.55 8.07-8.99 13.16-10.33 19.32-1.68 7.7 9.56 5.7 13.77 5.69 6.4-0.01 19.36 3.26 9.36 10.36-6.07 4.32-13.85 3.33-20.55 1.26-3.37-1.03-6.59-3.22-9.94-4.07-4.62-1.17-4.8-0.13-9.41 2.02-9.45 4.42-17.68-7.99-23.09-13.47-9.04-9.16-24.04-14.68-36.61-16.26q-0.05-0.01-0.09-0.01zm136.29-141.37c11.01-9.37 19.8 6.66 10.87 14.78-9.92 9.03-21.55-5.69-10.87-14.78zm-7.29 139.28c-7.3 11.26-22.29-0.02-14.27-11.53 1.45-2.08 3.04-3.35 4.63-4.04-2.9 0.1-5.86-1.14-7.73-4.07-2.88-4.52-0.12-7.35 2.5-10.41 2.29-2.66 4.47-5.49 2.72-9.75-2.04-4.98-4.76-9.83-3.76-15.45 0.48-2.77 2.67-8.25 6.23-5.75 2.83 1.99 1.12 8.75 1.12 11.5-0.01 3.66 0.5 5.29 2.58 8.18 3.51 4.9 6.64 13.62 4.54 19.7-0.93 2.71-2.89 4.56-5.19 5.47 6.27 0.19 11.31 8.94 6.63 16.15zm-20.38-101.47c5.65-6.48 18.28-6.71 26.03-5.19 4.36 0.86 11.72 3.64 12.23 8.78 0.84 8.53-13.33 20.01-20.19 23.81-3.91 2.16-11.33 6.46-14.1 0.98q-0.36-0.72-0.55-1.49c-1.15-4.46 1.39-10.06-1.23-14.35-2.71-4.42-6.53-7.58-2.19-12.54zm396.5 281.72c-20.37-0.61-55.14-1.64-68.57 15.51 10.62 8.59 24.98 14.88 38.92 12.04 7.87-1.61 12.09-11.04 20.93-11.87 9.16-0.86 17.14 9.52 26.35 7.94 33.13-5.68-0.74-23.12-17.63-23.62zm-61.84-109.6c2.21 4.13 6.75 6.84 14.08 6.33 18.84-1.31 30.26-44.99 0.05-35.31-12.65 4.06-18.97 19.94-14.13 28.98zm-49.1-75.24c-11.98 13.1-22.96 27.17-34.78 40.18-0.08 0.09-22.29 28.11-14.22 24.41 17.64-8.08 38.46-36.06 53.1-49.67 16.82-15.64 34.54-30.26 48.84-48.4 17.58-22.32 4.44-45.37-15.26-17.26-13.21 18.86-21.63 33.17-37.68 50.74zm-438.63 326.22c5.28-10.54 4.62-18.94 0.41-25.12-15.89-23.33-82.36-15.06-70.27 28.77 8.31 30.16 58.76 18.48 69.86-3.65zm-97.08 81.44c-18.04-3.76-29.98 21.46-8.54 26.67 20.8 5.06 28.58-22.49 8.54-26.67zm156.1-66.41c-3.19-2.01-7.23-2.78-11.41-1.51-9.4 2.85-17.37 14.53-20.27 23.26-1.72 5.15-3.28 7.25-7.8 10.52-3.4 2.45-13.29 6.39-13.21 11.67 0.09 6.64 8.83 4.44 12.68 2.56 7.83-3.8 11.4-11.51 15.72-18.49 3.7-5.98 9.16-5.82 14.49-5.38 6.13 0.51 12.11 1.39 15.11-6.23 1.95-4.94 0.83-9.7-1.9-13.19 2.28 1.35 5.27 2.17 9.15 2.1 21.4-0.4 21.91-29.03 1.46-27.97-13.1 0.68-19.41 14.75-14.02 22.66zm-79.59 79.47c2.95-7.07 12.15-8.95 16.64-14.36q0.78-0.93 1.34-2.02c4.29-8.33-7.66-13.64-13.84-16.54-10.83-5.08-37.72-12.3-47.51-3.63-5.89 5.23-2.73 16.82 0.11 22.97 5.06 10.94 16.65 26.34 29.73 27.53 10.01 0.91 10.49-6.63 13.53-13.95zm168.21 98.54c2.69 6.47 5.86 9.13 8.98 9.18 11.76 0.19 22.76-36.77 4.39-46.23-12.63-6.51-19.03 23.48-13.37 37.05zm-28.02 14.99c-3.27-0.94-8.89 6.48-4.38 10.12 5.29 4.27 3.44-10.39 4.38-10.12zm12.79-43.63c-3.49 8.46-7.34 14.99-12.05 22.11-1.47 2.22-12.51 17.49-7.97 19.45 6.39 2.76 18.53-29.76 21.81-35.66 3.71-6.66 8.24-14.86 10.01-23.28-4.87-0.08-9.52 11.84-11.8 17.38zm-37.44 20.18c7.59-0.91 8.47-18.11-0.67-17.46-8.87 0.62-7.78 18.48 0.67 17.46zm-52.56 65.58c1.41 1.21 3.12 1.62 4.8 0.75 3.77-1.94 6.55-9.37 7.36-14.86 0.48-3.24 1.03-4.58 2.76-6.69 1.3-1.6 5.23-4.22 4.95-7.51-0.34-4.14-3.87-2.62-5.38-1.38-3.08 2.51-4.21 7.38-5.69 11.8-1.26 3.8-3.53 3.8-5.77 3.61-2.57-0.21-5.09-0.65-5.99 4.15-0.58 3.11 0.1 6.06 1.39 8.19-1.01-0.8-2.29-1.26-3.89-1.15-8.87 0.63-7.78 18.49 0.66 17.47 5.41-0.65 7.39-9.53 4.8-14.38zm20.76-59.96c-0.09 4.75-3.4 7.49-4.34 11.52q-0.16 0.69-0.22 1.44c-0.43 5.74 5.03 6.83 7.87 7.47 4.99 1.14 16.56 0.74 19.08-6.17 1.51-4.16-1.46-10.54-3.49-13.73-3.61-5.66-10.44-12.84-15.71-11.26-4.05 1.22-3.1 5.81-3.19 10.73zm507.5-412.19c5.42-5.24 0.08-11.41 2.87-17.1 3.06-6.26 38.19-15.38 16.96-25.93-16.54-8.21-28.39 19.33-40.11 25.82-5.93 3.29-29.53 12.6-31.07 20.17-2.23 10.95 19.29 0.55 24.17 0.11 7.26-0.66 21.34 2.59 27.18-3.07zm38.43-18.82c-5.23-3.78-4.57-3.17-10.55-1.65-5.71 1.44-26.33 7.23-13.22 14.13 4.84 2.55 9.39-0.39 14.3-0.5 4.25-0.1 12.4 4.36 16.14 2.76 9.06-3.87-2.55-11.76-6.67-14.74z"/>
		</g>
	</g>
</svg>