<svg version="1.2" xmlns="http://www.w3.org/2000/svg" viewBox="0 0 800 800" width="800" height="800">
	<defs>
		<linearGradient id="g1" x2="1" gradientUnits="userSpaceOnUse" gradientTransform="matrix(-271.99,369.063,-415.773,-306.414,898.257,455.286)">
			<stop offset="1" stop-color="#ffcc01"/>
		</linearGradient>
	</defs>
	<style>
		.s0 { fill: url(#g1) } 
	</style>
	<g id="Layer 1">
		<g id="&lt;Group&gt;">
			<path id="&lt;Compound Path&gt;" class="s0" d="m615.23 533.98c9 16.27 43.27 36.84 22.41 58.91-22 23.29-21.02-31.08-40.41-31.22-16.47-0.13 5.45 17.82 3.88 24.41-2.97 12.47-18.66-1.75-21.68-7.37-2.01 10.12 10.95 18.22 5.95 28.75-10.4 21.9-38.6-20.61-45.06-3.98-3.07 7.91 10.96 13.33 7.12 21.41-6.24 13.13-10.37-5.86-13.32-8.45-6.94-6.07-12.49 5.8-15.84 11.1-5.22 8.27-6.22 15.3 0.03 23.67 4.35 5.82 13.33 9.21 9.26 17.96-8.28 17.8-12.97-10.61-16.12-15.61-4.43-7.05-10.82-8.03-14.16 0.72-2.09 5.47 0.71 15.86 2.77 21.12 6.02 15.39 23.77 41.45 12.68 58.07-15.1 22.61-32.24-22.5-32.02-33.44 0.39-19.98 18.43-47.51 6.33-66.14-4.45-6.86-12.08-11.1-19.58-13.86-11.36-4.16-7.78-0.98-15.91 3.72-9.51 5.5-12.44-7.01-20.47-5.21-3.16 0.71-3.8 6.94-7.22 7.88-4.1 1.13-4.91-1.81-8.36-2.97-9.85-3.31-14.33-3.82-17.85 7.17-2.06 6.41-4.96 22.3-15.92 11.42-6.92-6.87 0.62-21.76-3.76-30.92-4.57-9.56-29.44-22.24-39.25-13.46-5.05 4.52 0.29 16.32 0.44 21.96 0.63 22.97-23.9 15.88-20.57-2.34 1.87-10.23 25.21-25.2 15.96-35.69-9.16-10.4-17.39 4.65-21.42 10.71-7.12 10.72-14.46 16.87-16.56 30.46-2.51 16.23 1.55 51.21-21.14 54.86-21.21 3.41-45.27-30.72-33.25-49.11 11.2-17.15 38.73-8.32 51.19-24.66 4.33-5.69 5.39-13.11 8.53-19.4 2.57-5.14 7.18-9.09 9.67-14.11 4.86-9.76-2.6-13.91-11.67-11.19-3.87 1.15-6.88 4.64-10.82 6-3.59 1.24-7.65-0.94-10.69 2.33-3.71 3.99-1.56 12.58-2.42 17.41-2.93 16.51-18.49 11.99-25.71-0.36-9.89-16.92 4.86-25.57 16.79-34.77 11.95-9.22 22.16-27.09 10.09-41.51-9.07-10.82-21.77 0.81-30.3-3.98-10.78-6.05-0.07-10.55 2.75-16.1 2.72-5.37 2.11-11.69 5.2-17.53-16.91-19.95-36.4 12.06-55.92 4.02-13.54-5.59-11.16-17.95-1.13-25.8 13.08-10.23 31.35-12.31 47.32-13.03 9-0.41 16.44 0.17 21.05-8.74 3.51-6.76 0.77-15.14 4.27-21.79 2.72-5.17 8.56-6.22 8.26-12.73-0.31-6.43-7.22-8.33-5.34-15.6 1.97-7.59 8.77-7.01 4.61-16.14-5.11-11.23-22.34-27.77-34.59-29.49-21.56-3.03-47.05 3.63-65.94-10.5-17.55-13.13-9.76-33.99 10.08-38.66 30.87-7.26 54.29 17.94 77.6 33.8 9.6 6.54 25.1 17.45 36.53 8.23 11.35-9.16 1.14-24.69-9.61-29.35-10-4.34-36.81-9.31-21.21-25.28 15.87-16.25 21.75 8.22 28.36 17.78 3.16 4.57 19.4 17.77 25.68 12.22 6.9-6.08-2.98-12.78 7.58-17.58 5.36-2.44 11.99 2.21 7.67-8.13-3.9-9.33-17.38-13.65-20.82-22.87-4.02-10.77 6.39-12.43 12.87-6.07 4.94 4.84 5.81 13.29 10.93 18.18 6.49 6.21 19.35 5.97 23.15-3.74 3.55-9.04-6.62-18.11-2.92-27.58 4.07-10.38 12.06-7.04 15.55 2.04 2.43 6.33 2.39 16.19 10.33 18.86 8.49 2.86 6.03-1.67 9.89-6.27 7.87-9.35 15.95 11.71 20.21-0.47-3.59-2.72-6.32-7.59-3-11.58 4.54-5.44 5.26 0.06 9.08 1.96 3.91 1.94 5.18 7.3 10.32 1.82 10.08-10.78-16.22-90.28 15.59-78.99 22.18 7.88 7.92 45.31 10.15 61.21 2.87 20.47 14.24-1.81 22.1 6.47 3.74 3.94-1.88 9.69 3.89 13.42 17.49 11.32 4.02-29.74 3-33.29-2.61-9.08-5.83-22.26 3.07-29.18 6.78-5.28 14.34-2.91 17.34 4.78 6.54 16.78-9.87 36.66-2.42 54.58 2.22 5.33 10.3 6.06 14.05 3.27 4.02-2.99 3.32-11.19 5.52-15.29 5.76-10.74 13.29-2.03 10.55 7.79-1.69 6.04-9.03 20.48 3.28 22.32 5.66 0.85 11.98-8.83 17.93-6.9 10.21 3.33-7.43 16.71 5.71 19.64 11.51 2.57 17.59-36.58 22.01-44 5.54-9.3 14.44-20.95 26.41-21.32 10.66-0.32 16.04 7.26 13.52 17.23-5.54 21.88-34.82 31.39-40.18 52.97-2.04 8.21 9.15 11.98 14.4 15.42 11.37-5.8-0.85-21.52 7.47-30.09 10.14 2.44 10.25 9.87 7.63 17.82-3.36 10.19-6.85 33.35 2.42 41.59 11.19 9.95 20.73-6.65 25.25-15.45 8.16-15.85 15.35-27 35.74-25.39 22.48 1.78 18.42 15.98 3.21 25.98-12.16 7.99-33.68 11.15-42.51 23.16-3.88 5.29-7 17.9-2.85 23.68 4.8 6.72 18.02 3.81 19.33 12.24 1.4 8.97-7.17 8.62-1.28 17.93 2.59 4.09 5.96 7.18 6.6 12.11 0.78 6.05-3.5 11.07-1.88 16.97 1.74 6.37 19.51 21.82 3.34 23.97-5.23 0.7-8.52-8.01-14.04-6.21-13.54 4.42 8.7 22.47 13.42 25.48 18.95 12.04 32.77 0.73 52.31 1.75 20.56 1.08 22.03 26.49 4.77 34.94-22 10.77-41.53-14.11-58.37-23.99-6.4-3.76-36.39-12.83-29.43 5.87 2.52 6.76 25.21 12.97 12.91 21.85-8.97 6.46-18.02-6-18.2 7.87-0.06 4.42 4.14 7.53 1.72 12.27-2.13 4.17-7.99 3.96-11.29 6.46-5.81 4.4-5.65 9.4-2.62 14.89zm-19.52-457.14c7.54-31.82-10.61-8.52-18.01 5.97-10.65 20.88-18.01 42.45-21.99 65.5-2.13 12.35-14.36 43.25-6.49 54.5 18.36-12.93 19.73-44.12 23.14-64.56 3.64-21.75 18.25-39.94 23.35-61.41zm16.73 51.29c1.54-5.04 11.5-12.13 8.59-18.49-2.31-5.04-23.24 29.91-24.5 32.52-2.47 5.11-10.21 16.83-5.87 21.72 10.8 12.18 24.15-10.36 23.08-19.53-0.89-7.62-3.67-8.44-1.3-16.22zm-21.89 48.38c-16.16-13.23-30.87 32.8-4.43 9.06 3.39-3.05 11.4-3.37 4.43-9.06zm-202.31-47.25c1.43-10.78 8.3-46.58-10.49-48.93-28.15-3.52-7.34 60.33-6.3 71.19 1.8 18.88 2.63 43.37 20.45 54.91 2.51 1.62-3.49-30.99-3.76-33-1.94-14.67-1.83-29.5 0.1-44.17zm-72.55 22.07c-19.73 0.31-5.73 31.21 4.74 35.41 25.91 10.4 18.2-35.77-4.74-35.41zm-37.41-28.47c-11.93 5.27 1.88 31.78 9.99 30.89 6.08-0.67 10.97-40.15-9.99-30.89zm30.79 118.43c-2.71-15.95-10.61-25.52-22.28-36.63-8.75-8.34-19.17-9.24-27.81-17.81-11.98-11.89-42.5-67.16-62.45-47.95 9.56 15.84 28.94 19.56 40.44 33.04 10.05 11.79 10.35 28.79 22.36 39.38 10.23 9.04 24.11 12.6 34.24 22.58 2.17 2.14 8.74 12.93 11.7 12.37 7.19-1.33 1.63-12.7-1.42-15.21zm-129.01-69.81c-19.24-5.94-38.57 7.98-44.28 26.42-8.76 28.3 36.28 42.4 54.82 50.29 9.95 4.24 72.58 34.02 62.2 3.36-5.27-15.55-22.32-25.94-30.38-40.01-9.55-16.66-23.3-34.18-42.36-40.06zm528.76 21.8c7.78-4.39 35.3-15.94 27.55-27.47-7.43-11.06-38.3-0.29-46.07 5.88-14.01 11.13-18.39 28.9-28.2 43.11-7.28 10.53-23.28 22.43-22.6 36.44 13.41-4.93 21.79-19.25 31.4-29.02 7.29-7.41 15.02-13.94 23.36-19.78q6.98-4.88 14.56-9.16zm-519.22 178.22c-6.17 4.89-42.02 6.83-46.89 0.69-10.28-12.97 25.27-15.63 32.16-14.82 7.81 0.93 25.11 5.91 14.73 14.13zm40.25 17.49c-23.25 3.95-28.56-31.16-4.1-22.52 10.71 3.79 21.36 19.59 4.1 22.52zm-40.46 16.83c-17.82 3.02-21.89-23.89-3.15-17.26 8.21 2.9 16.37 15.01 3.15 17.26zm553.64-109.88c5.99-7.69 19.44-30.33 32.26-21.47 12.05 8.33-9.24 20.32-14.53 24.61-15.76 12.79 9.52 11.39 5.72 23.8-1.94 6.34-8.84 6.26-3.44 13.53 1.64 2.2 4.66 3.85 4.42 6.96-0.26 3.42-5.6 6.54-8.06 8.16-9.52 6.27-17.2 4.33-26.33-1.08-3.11-1.84-7.6-6.9-11.54-5.9-4.15 1.04-2.25 4.41-3.28 7.48-1.03 3.03-4.65 6.83-8.14 6.75-7.55-0.19-5.46-11.79-9.21-15.3-4.69-4.4-7.98 4.31-9.73 7.26-2.67 4.49-10.38 12.19-11.17 2.22-0.48-6.05 3.46-11.08 7.7-14.91 2.14-1.92 5.01-3.27 7.01-5.26 2.75-2.74 2.1-3.3 2.52-7.43 0.85-8.46 12.98-9.03 19.07-10.53 10.2-2.5 20.32-10.69 26.68-18.83q0.02-0.03 0.05-0.06zm42.01 154.47c1.95 11.62-12.94 11.07-14.89 1.43-2.18-10.72 12.99-12.71 14.89-1.43zm-94.45-63.3c-4.83-9.81 9.33-15.59 14.03-5.18 0.86 1.89 1.08 3.53 0.9 4.93 1.14-2.07 3.24-3.62 6.07-3.7 4.37-0.13 5.2 2.98 6.24 6.1 0.91 2.71 1.98 5.42 5.7 5.97 4.33 0.65 8.87 0.78 12.38 3.82 1.74 1.5 4.66 5.32 1.42 6.77-2.57 1.15-6.59-2.87-8.51-4.03-2.56-1.53-3.92-1.85-6.81-1.6-4.89 0.41-12.3-1.04-15.69-5.05-1.5-1.79-1.97-3.94-1.65-5.92-2.76 4.31-10.99 4.18-14.08-2.11zm79.54 28.13c2.17 6.66-2.94 15.6-7.24 20.39-2.43 2.69-7.45 6.68-11.26 4.89-6.31-2.98-8.43-17.7-8.22-24.08 0.11-3.64 0.2-10.63 5.2-10.28q0.65 0.05 1.27 0.23c3.6 1.07 6.46 5.19 10.56 5.14 4.23-0.05 8.03-1.4 9.69 3.71zm-206.42 233.31c-3.73-7.92 7.03-10.52 10.36-4.01 3.7 7.23-6.74 11.7-10.36 4.01zm17.71 22.18c-2.89-4.34-1.02-11.76 1.1-16.05 1.19-2.41 3.98-6.28 7.06-5.76 5.12 0.86 9.59 10.97 10.72 15.58 0.64 2.63 1.98 7.65-1.66 8.4q-0.48 0.09-0.96 0.09c-2.79-0.04-5.66-2.41-8.58-1.56-3.01 0.88-5.46 2.62-7.68-0.7zm-437.69-157.57c13.36-6.13 59.71-32.5 72.96-19.91-4.09 5-12.71 5.35-18.6 8.3-11.63 5.82-21.76 14.9-32.55 22.08-23.21 15.44-49.6 23.42-77.48 24.02-10.77 0.23-44.16-4.11-17.87-13.2 24.42-8.45 49.66-10.33 73.54-21.29zm-19.55 52.61c0.39-8.36 27.4-23.9 33.95-19.72 8.92 5.7-13.09 25.69-19 28.97-6.22 3.46-15.37-0.27-14.95-9.25zm-75.02 6.53c2.64-4.86 25.26-15.99 30.1-13.36 10.21 5.55-12.02 17.06-16.7 18.43-5.3 1.55-17.84 3.1-13.4-5.07zm-30.82-0.22c13.93-8.95 27.03 12.27 8.85 13.42-7.96 0.51-19.19-6.77-8.85-13.42zm18.89-10.92c10.67-6.86 20.71 9.4 6.78 10.28-6.1 0.39-14.71-5.19-6.78-10.28zm301.68 147.24c2.33-15.85 6.72-30.49 12.52-45.27 6.85-17.51-9.59-12.81-16.68-3.95-3.5 4.39-6.11 9.55-10.03 13.6-2.9 3-8.29 5.22-10.05 9.15-4.97 11.05 6.1 9.74 10.06 15.22 6.47 8.96-25.46 30.93-9.49 38.58 14 6.7 22.43-18.83 23.67-27.33zm345.15-139.07c-0.53-10.39-12.71-14.67-21.3-11.77-25.98 8.79 22.4 33.91 21.3 11.77zm-292.34 125.21c5.13 5.5 14.26-2.81 12.19-8.72-2.31-6.63-12.47-3.69-14.26 2.13-0.6 1.93-0.15 4.2 2.07 6.59zm-99.73 22.68c5.13 5.5 14.26-2.81 12.2-8.72-2.32-6.64-12.48-3.69-14.27 2.13-0.6 1.93-0.15 4.2 2.07 6.59z"/>
		</g>
	</g>
</svg>