<?xml version="1.0" encoding="UTF-8" standalone="no"?>
<svg
   version="1.2"
   viewBox="0 0 800 800"
   width="800"
   height="800"
   id="svg2"
   sodipodi:docname="splash_red.svg"
   inkscape:version="1.4 (86a8ad7, 2024-10-11)"
   xmlns:inkscape="http://www.inkscape.org/namespaces/inkscape"
   xmlns:sodipodi="http://sodipodi.sourceforge.net/DTD/sodipodi-0.dtd"
   xmlns="http://www.w3.org/2000/svg"
   xmlns:svg="http://www.w3.org/2000/svg">
  <sodipodi:namedview
     id="namedview2"
     pagecolor="#ffffff"
     bordercolor="#666666"
     borderopacity="1.0"
     inkscape:showpageshadow="2"
     inkscape:pageopacity="0.0"
     inkscape:pagecheckerboard="0"
     inkscape:deskcolor="#d1d1d1"
     inkscape:zoom="0.78400464"
     inkscape:cx="25.510053"
     inkscape:cy="384.56405"
     inkscape:window-width="2048"
     inkscape:window-height="1089"
     inkscape:window-x="4472"
     inkscape:window-y="140"
     inkscape:window-maximized="1"
     inkscape:current-layer="svg2" />
  <defs
     id="defs2">
    <linearGradient
       id="g1"
       x2="1"
       gradientUnits="userSpaceOnUse"
       gradientTransform="matrix(-132.179,-575.985,766.286,-175.85,-10.823097,887.13116)">
      <stop
         offset="0"
         stop-color="#dc3912"
         id="stop1" />
      <stop
         offset="1"
         stop-color="#dc3912"
         id="stop2" />
    </linearGradient>
  </defs>
  <style
     id="style2">
		.s0 { fill: url(#g1) } 
	</style>
  <path
     id="&lt;Compound Path&gt;"
     class="s0"
     d="M 116.2999,114.39216 C 95.529903,99.622159 48.189903,73.212161 47.849903,44.082161 105.0599,68.262161 150.4899,111.21216 192.0099,156.32216 c 20.84,22.63 40.78,46.07 61.66,68.67 15.94,17.26 36.38,48.19 60.37,52.77 23.36,4.46 63.09,-14.14 56.42,-42.21 -5.11,-21.5 -45.62,-32.35 -46.49,-54.85 -0.75,-19.53 23.01,-12.07 31.57,-2.91 15.39,16.47 12.33,52.14 33.47,63.17 9.94,5.18 27.44,3.4 35.03,-3.66 4.55,-4.24 4.24,-14.46 12.5,-14.2 5.4,0.18 10.01,13.88 11.39,13.74 8.86,-0.85 15.41,7.89 23.88,5.15 14.3,-4.61 6.04,-17.74 7.75,-26.81 1.81,-9.59 7.64,-15.18 17.42,-7.9 8.4,6.25 6.08,16.14 4.56,24.8 -1.61,9.15 -6.66,18.66 -1.69,27.66 6.48,11.75 14.84,4.87 23.2,8.68 10.74,4.9 2.43,10.46 8.78,18.92 5.53,7.36 11.89,0.83 19.27,6.1 14.43,10.32 1.28,33.1 26.07,33.4 12.41,0.15 35.05,-16.57 33.16,7.02 -1.12,14.01 -17.3,12.1 -19.49,23.66 -3.93,20.78 28.75,3.27 37.54,2.18 20.46,-2.55 39.21,11.3 34.28,33.06 -6.91,30.5 -48.55,15.43 -68.35,27.47 -48.65,29.58 10.37,74.42 43.27,78.4 34.52,4.17 91.41001,8.41 94.99001,53.84 -21.49,8.58 -40.86001,-12.43 -56.91001,-23.58 -34.08,-23.67 -92.62,-33.46 -133.02,-19.19 -20.62,7.28 -54.35,40.89 -29.19,61.21 15.94,12.89 38.94,13.71 56.9,22.55 13.09,6.45 30.78,23.29 25.71,40.52 -7.12,24.21 -44.44,36.36 -58.42,12.3 -11.99,-20.64 -1.9,-47.23 -17.33,-67.04 -21.91,-28.12 -82.36,-38.91 -94.38,4.47 -3.24,11.69 -0.63,21.44 -16.63,20.82 -21.63,-0.84 -5.98,-32.37 -22.95,-31.26 -26.94,1.76 6.53,43.4 -2.23,56.72 -9.8,14.91 -31.1,10.14 -40.12,-2.75 -12.95,-18.49 1.08,-32.65 14.05,-45.26 27.1,-26.34 -2.23,-46.93 -30.06,-42.52 -28.21,4.47 -28.79,-37.76 -53.23,-39.88 -10.59,-0.92 -14.71,5.49 -12.54,-8.85 2.21,-14.68 16.59,-27.48 -1.75,-37.32 -9.75,-5.23 -18.71,-1.34 -28.48,1.94 -8.43,2.82 -49.77,22.11 -49,1.29 1.72,-45.58 83.84,-0.4 93.56,-21.75 0.24,-0.52667 0.43333,-1.09333 0.58,-1.7 3.12,-12.69 -13.88,-25.4 -8.72,-40.97 2.4,-7.23 7.77,-6.48 7,-15.55 -0.71,-8.46 -8.89,-17.24 -17.07,-19.56 -10.55,-3.01 -25.17,5.28 -27.05,-11.52 -1.71,-15.32 12.11,-18.26 22.39,-13.65 12.58,5.64 23.84,13.58 33.54,-2.7 25.72,-43.11 -14.52,-61.07 -39.95,-88.17 -41.27,-43.96 -81.21,-91.32 -130.97,-126.68 z m 195.08808,518.80713 c 7.05,-18.9 10.55192,-64.89713 -23.58808,-46.68713 -11.01,5.87 -11.83,21.76 -25.02,25.85 -9.69,3.01 -21.04808,-17.42012 -31.52,0.86 -5.34437,21.94096 23.46,19.72 36.85,22.78 9.32,2.13 30.26413,7.16917 43.27808,-2.80287 z M 612.5999,552.66216 c -38.84,-20.3 -53.43,23.54 -8.22,33.99 10.96,2.53 18.13,-1.08 28.39,4.32 9.67,5.09 9.49,17.34 22.8,13 9.61,-3.13 -37.66,-48.53 -42.97,-51.31 z m -114.96,87.4 c 1.77,-17.11 -16.42,-32.98 -26.26,-12.33 -7.17,15.1 6.46,31.96 14.34,43.52 3.82,-2.81 10.85,-25.38 11.59,-29.02 0.14667,-0.72667 0.25667,-1.45 0.33,-2.17 z m 14.9,3.52 c -10.73,17.43 6.03,41.29 4.36,60.44 -1.81,20.78 -4.55,38.06 12.69,55.02 22.33,21.97 17.02,-9.98 11.61,-27.65 -7.79,-25.43 -5.57,-70.95 -28.66,-87.81 z m -244.79,-458.05 c -4.81,-16.81 -16.18,-32.36 -22.18,-48.6 -4.81,-13.06 -7.17,-30.92 -22.41,-36.3 -13.87,-4.890001 10.31,44.68 11.53,46.63 7.47,11.86 17.41,35.66 33.06,38.27 z m -116.98,314.91 c 6.29,21.22 29.35,-8.34 31.4,-5.41 -7.15,-10.23 -36.75,-12.65 -31.4,5.41 z m 77.64,-12.84 c -6.2,-19.14 -34.78,3.21 -27.99,16.57 8.47,16.66 32.41,-2.97 27.99,-16.57 z m 85.56,177.9 c -4.44,5.32 -16.11,12.57 -16.25,20.3 -0.14,7.17 7.59,7.75 9.53,13.45 2.14,6.27 -15.41,35.98 5.97,28.84 16.65,-5.56 6.16,-32.06 9.7,-44.29 1.79,-6.2 11.46,-28.3 7.41,-34.44 -5.85,-8.87 -13.37,12.58 -16.36,16.14 z m -21.88,34.41 c -4.97,1.53 -6.06,6.56 -9.29,9.93 -2.8,2.92 -11.28,5.38 -12.73,8.96 -3.51,8.69 9.6,6.22 14.38,5.46 6.06,-0.96 5.2,-0.93 8.22,-5.96 2.88,-4.8 12.88,-22.54 -0.58,-18.39 z m -125.58,-401.04 c -6.63,5.13 -8.8,10.71 -8.01,15.97 3,19.84 48.13,35.02 53.89,3.21 3.97,-21.88 -31.96,-29.94 -45.88,-19.18 z m -24.74,-45.86 c 0.18,-5.59 -9.81,-14.39 -12.73,-6.47 -3.42,9.31 12.78,4.87 12.73,6.47 z m 53.21,17.6 c -10.59,-5.1 -19.08,-11.02 -28.49,-18.3 -2.93,-2.27 -23.34,-19.5 -24.33,-11.67 -1.4,11.02 38.97,28.53 46.59,33.53 8.61,5.64 19.19,12.52 29.28,14.76 -1.25,-8.22 -16.1,-14.98 -23.05,-18.32 z m -33.23,-61.27 c 3.12,12.72 22.96,12.64 19.73,-2.71 -3.14,-14.89 -23.2,-11.43 -19.73,2.71 z m -89.099997,-82.63 c -0.99,2.49 -0.99,5.42 0.46,8.17 3.25,6.18 12.46,10.19 18.94,11.05 3.83,0.51 5.51,1.32 8.389997,4.04 2.17,2.05 6.24,8.43 9.91,7.67 4.62,-0.95 1.92,-6.76 0.1,-9.2 -3.7,-4.96 -9.56,-6.43 -15.009997,-8.51 -4.67,-1.79 -5.28,-5.61 -5.69,-9.4 -0.46,-4.35 -0.65,-8.64 -6.37,-9.72 -3.7,-0.7 -6.88,0.72 -8.95,3.09 0.64,-1.77 0.81,-3.97 0.25,-6.67 -3.14,-14.89 -23.2,-11.43 -19.73,2.71 2.22,9.06 12.89,11.58 17.7,6.77 z m 74.009997,29.55 c -5.44,0.28 -9.47,-5.04 -14.31,-6.26 -0.56,-0.14667 -1.13,-0.23 -1.71,-0.25 -6.66,-0.19 -6.4,9.11 -6.36,13.95 0.06,8.51 3.68,27.97 12.24,31.58 5.16,2.18 11.62,-3.4 14.7,-7.11 5.47,-6.6 11.79,-18.76 8.54,-27.51 -2.49,-6.7 -7.47,-4.69 -13.1,-4.4 z m 448.39,-73.849999 c 18.81,4.2 6.08,-25.86 9.18,-26.18 -10.81,1.1 -25.18,22.6 -9.18,26.18 z m 23.86,-36.2 c 16.27,0.62 11.47,-25.91 -0.75,-28.31 -17.19,-3.38 -12.29,27.82 0.75,28.31 z m -71.25,156.909999 c 9.31,-23.46 24.78,-39.96 37.7,-61.17 4.57,-7.49 26.25,-49.290001 8.76,-44.150001 -19.36,5.700001 -27.63,46.320001 -33.12,62.360001 -12.72,37.2 -37.42,66.3 -55.35,100.2 26.91,-8.91 32.6,-33.5 42.01,-57.24 z m -67.75,-21.56 c 7.04,-5.77 7,-12.38 -0.65,-18.76 -0.24,-0.20667 -0.48333,-0.4 -0.73,-0.58 -21.43,-15.66 -27.98,43.41 1.38,19.34 z m -86.24,-45.57 c 0.21,-5.63 7.37,-6.57 5.63,-13.05 -1.21,-4.5 -9.67,-8.14 -13.47,-9.88 -8.98,-4.12 -8.14,0.98 -6.57,8.48 0.75,3.62 0.38,8.68 1.63,12.54 2.4,7.36 8.07,13.23 13.34,18.7 7.45,-6.41 -0.81,-10.42 -0.56,-16.79 z m 5.4,72.6 c 9.54,5.55 7.36,-15.8 6.49,-19.55 -2.27,-9.82 -7.94,-17.81 -12,-26.83 l 0.07,-1.03 c -1.92,-2.46 -4.67,-3.38 -6.95,-1.53 6,16.58 17.62,30.01 12.39,48.94 z m 13.75,-1.27 c 0.18,0.37 4.42,8.6 4.02,8.21 3.08,3 4.69,1.06 5.22,-1.85 0.42,-2.28 0.18,-5.15 -0.53,-6.66 -2.51,-5.32 -12.93,-8.25 -8.71,0.3 z m 286.30001,367.86 c -0.32,15.15 20.87,0.67 21.6,3.01 -2.53,-8.16 -21.33,-15.9 -21.6,-3.01 z m 31.59,12.77 c 2.05,12.63 21.75,4.82 21.7,-4.97 -0.06,-13.77 -23.34,-5.15 -21.7,4.97 z m -81.75001,-337.6 c -15.36,12.38 -41.59,33.5 -40.67,54.57 13.21,-0.36 27.74,-4.78 36.2,-15.64 4.78,-6.14 1.95,-15.73 7.93,-21.91 6.2,-6.4 18.6,-3.78 24.38,-10.74 20.80001,-25.03 -15.09,-16.55 -27.84,-6.28 z m 52.12001,48.54 c 4.22,1.64 9.27,0.77 14.34,-4.21 13.03,-12.82 -6.06,-52.14 -22.19,-26.01 -6.75001,10.95 -1.40001,26.61 7.85,30.22 z m -83.26001,-55.41 c -11.42,12.85 -21.86,26.62 -33.13,39.37 -0.07,0.09 -21.19,27.52 -13.42,23.83 16.96,-8.06 36.73,-35.43 50.72,-48.81 16.07,-15.37 33.03,-29.77 46.62,-47.52 16.72,-21.85 3.69,-43.98 -15,-16.5 -12.54,18.44 -20.49,32.4 -35.79,49.63 z"
     style="fill:url(#g1)"
     inkscape:label="&lt;Compound Path&gt;"
     sodipodi:nodetypes="ccccccccccccccccccccccccsccccccccccccccccccccccccccccccccccccscccccccccccccccccccccccccccccccccccccccccccccccccccccccccccccccccccccccccccccccccccccccccccccccccccccccccccccccccccccccccccccccccccccc" />
  <g
     id="Layer 1">
    <g
       id="&lt;Group&gt;" />
  </g>
</svg>
