<svg version="1.2" xmlns="http://www.w3.org/2000/svg" viewBox="0 0 800 800" width="800" height="800">
	<defs>
		<linearGradient id="g1" x2="1" gradientUnits="userSpaceOnUse" gradientTransform="matrix(0,686.946,-690.762,0,791.867,66.454)">
			<stop offset="1" stop-color="#17becf"/>
		</linearGradient>
	</defs>
	<style>
		.s0 { fill: url(#g1) } 
	</style>
	<g id="Layer 1">
		<g id="&lt;Group&gt;">
			<path id="&lt;Compound Path&gt;" class="s0" d="m674.66 351.25c-2.57 0.43-5.09 0.32-7.54-0.05l0.1 0.13c-19.24-2.76-82.78 34.38-75.4 79.04 8.14 49.25 14.48 103.82-10.26 144.67-26.55 43.83-73.32 60.65-119.75 71.38-36.71 8.49-26.69 51.46-20.02 59.15l-0.06-0.01c3.77 4.32 4.3 10.78 0.86 15.69-4.04 5.77-12 7.16-17.77 3.12-5.77-4.05-7.16-12-3.12-17.77 0.79-1.12 1.75-2.03 2.79-2.81 0 0-0.1 0-0.08-0.01 5.66-4.55 26.03-48.47-9.65-62.64-70.8-28.13-105.38 78.99-100.13 101.8l-0.03-0.03c3.06 13.18-3.05 27.23-15.64 33.66-14.83 7.57-33 1.68-40.57-13.15-7.57-14.83-1.68-33 13.15-40.57 2.84-1.44 5.79-2.39 8.77-2.89 23.31-3.86 95.65-64.56 54.92-133.52-6.9-11.69-11.85-24.18-19.29-35.3-34.79-52.05-103.17-22.94-114.39-7.85l-0.01-0.1c-6.48 8.78-18.28 12.42-28.81 8.04-12.39-5.15-18.26-19.37-13.11-31.76 5.15-12.39 19.37-18.26 31.76-13.11 2.41 1 4.49 2.43 6.37 4.04l-0.02-0.16c13.85 11.69 82.13 28.08 106.32-27.61 60.93-140.24-102.47-222.76-143.61-221.98l0.05-0.05c-23.07 0.48-44.38-14.66-50.68-37.94-7.42-27.43 8.79-55.67 36.22-63.1 27.42-7.42 55.67 8.8 63.09 36.22 1.42 5.24 1.96 10.52 1.74 15.67-1.72 40.01 76.96 177.88 200.93 139.27 78.44-24.43 47.48-153.78 26.9-174.55h0.06c-12.63-12.7-15.55-32.79-5.85-48.8 11.43-18.87 35.98-24.9 54.85-13.47 18.86 11.43 24.89 35.98 13.46 54.85-2.18 3.61-4.85 6.73-7.86 9.37-24.05 21.04-69.6 128.41 48.39 199.87 56.21 34.05 103.18-33.57 104.71-52.66l0.07 0.08c0.84-10.88 8.91-20.22 20.16-22.1 13.24-2.2 25.76 6.74 27.96 19.98 2.21 13.24-6.74 25.76-19.98 27.96zm-122.36 315.84c-4.58 0-8.27-3.69-8.27-8.26 0-4.58 3.69-8.27 8.27-8.27 4.57 0 8.26 3.69 8.26 8.27 0 4.57-3.69 8.26-8.26 8.26zm81.87-123.17c-8.49 0-15.35-6.86-15.35-15.35 0-8.49 6.86-15.35 15.35-15.35 8.49 0 15.35 6.86 15.35 15.35 0 8.49-6.86 15.35-15.35 15.35zm58.54-48.42c-14.58-1.62-27.72 8.88-29.35 23.46-1.63 14.58 8.87 27.72 23.45 29.35 14.59 1.63 27.73-8.87 29.35-23.45 1.63-14.59-8.87-27.73-23.45-29.36zm-115.66 223.3c-10.61 0-19.19-8.58-19.19-19.19 0-10.61 8.58-19.19 19.19-19.19 10.61 0 19.18 8.58 19.18 19.19 0 10.61-8.57 19.19-19.18 19.19zm-353.73-632.1c-2.95-10.72-28.43-94.82-46.81-71.81-11.4 14.26 7.83 55.71 13.24 68.8 13.23 32.04 31.58 61.68 51.6 89.86 10.89 15.33 22.43 28.21 28.43 46.19 3.77 11.29 6.22 31.91 18.08 38.09 2.32-15.54-8.29-28.11-13.74-41.65-5.35-13.28-8.54-26.77-14.74-39.91-14.17-30.04-27.21-57.37-36.06-89.57zm-21.05 245.05c-7.28 8.14-6.57 15.68-2.1 22.02 6.38 9.03 20.42 15.6 29.8 17.9 39.47 9.65 1.85-72.96-27.7-39.92zm-146.96-104.83c3.88 5.46 8.49 6.06 12.88 4.25 6.28-2.59 12.11-10.1 14.76-15.4 11.14-22.3-43.4-11.02-27.64 11.15zm130.54 109.26c-1.36-5.14-4.62-6.87-8.39-6.75-5.38 0.18-11.8 4.13-15.25 7.33-14.48 13.47 29.18 20.27 23.64-0.58zm-69.51-76.68c3.04-4.35 2.26-7.96-0.27-10.76-3.61-3.99-10.78-6.34-15.45-6.9-19.63-2.35 3.38 35.36 15.72 17.66zm-29.27 175.24c2.24 32.19 69.19 5.36 86.1 4.26 20.79-1.35 88.94 25.83 94.5-7.88 0.83-5.07-47.72-5.26-52.99-6.9-29.75-9.26-49.56-22.68-81.54-19-16.99 1.95-47.73 5.51-46.07 29.52zm-51.71-51.61c4.3 15.15 32.73 12.76 44.02 11.9 6.09-0.46 29.94-1.42 30.37-10.04 0.52-10.2-36.63-17.47-44.44-20-11.74-3.79-35.36-0.89-29.95 18.14zm120.33 97.62c17.06-7.65 35.64-17.87 12.29-21.78-13.12-2.19-41.1 7.16-49.31 18.1-12.2 16.3 8.11 17.6 18.42 11.89 2.76-1.52 10.51-4.58 18.6-8.21zm382.57-252.16c-14.48-16.57-15.68 26.89-18.46 34.77-3.42 9.7-28.43 24.25-14.79 45.01 2.06 3.12 11.5-17.69 13.23-19.07 9.78-7.77 19.46-9 24.02-24.78 2.43-8.38 6.8-23.57-4-35.93zm32.5 5.84c-7.44-6.4-11.88 7.15-13.69 12.48-0.97 2.88-5.15 13.67-1.47 18.56 4.35 5.78 14.69-6.27 17.3-8.25 3.92-3 7.21-14.75-2.14-22.79zm-65.81-1.34c0.05 11.51 0.93 25.09 7.13 17.16 3.49-4.46 4.8-21.61 1.61-31.11-4.76-14.14-9.24-6.09-8.74 1.46 0.13 2.02-0.03 7.02 0 12.49zm-137.27-63.79c-7.29-8.08-9.14-0.99-18.27-2.46-15.88-2.57-20.33-20.29-24.89-33.89-9.2-27.45-13.19-58.81-27.75-84.16-10.97-19.09-22.64-18.23-28.24 3.64-7.87 30.69 1.89 67.37 13.68 95.67 14.59 34.99 36.53 66.04 56.66 97.93 9.17 14.52 18.91 29.41 27.12 44.34 5.49 9.98 9.93 32.71 23.25 35.48 8 1.67-11.86-100.1-12.96-107.05-1.86-11.69-0.21-40.21-8.6-49.5zm17.8-83.57c2.67-11.08 8.59-25.95 0.25-39.35-16.38-26.35-26.52 22.99-25.88 30.69 0.81 9.7 5.08 19.69 7.19 29.49 1.39 6.49-1.08 17.66 6.73 23.64-0.94-0.72 3.23-15.5 6.87-27.9 2.33-7.97 4.44-14.95 4.84-16.57zm327.34 493.36c-9.76 3.21-23.28 3.84-34.45-0.89-6.68-2.83-18.95-10.7-23.4-3.39-2.16 3.57-1.76 4.55-5.65 5.21-2.82 0.47-6.25-0.26-9.18 0.05-5.84 0.64-11.88 2.61-13.98 8.61-3.44 9.87 7.48 8.01 12.03 5.66 2.99-1.54 9.95-7.4 12.74-0.03 2.23 5.88-4.78 15.28 2.63 20.69 3.43 2.51 8.64 1.46 10.94-0.66 2.34-2.16 1.88-6.62 6.44-4.72 4.33 1.8 6.64 9.64 8.93 13.52 6.77 11.4 13.57 18.54 25.67 19.28 3.12 0.18 9.75 0.98 11.46-2.04 1.55-2.74-0.74-6.38-1.43-9.57-2.27-10.55 4.54-5.68 9.16-10.27 9.03-8.97-16.63-25.2 4.42-26.23 7.07-0.35 33.28 3.22 24.86-12.94-8.95-17.18-31.91-5.34-41.11-2.3q-0.04 0.01-0.08 0.02zm-86.2 94.17c-6.08-4.71-10.92-5.52-14.48-3.86-13.44 6.27-8.63 47.68 16.63 46.66 17.37-0.71 10.61-32.91-2.15-42.8zm46.99 70.43c-2.15 10.37 12.39 21.21 15.38 8.99 2.9-11.86-12.98-20.52-15.38-8.99zm-38.37-104c-1.16 1.64-1.6 3.98-0.86 6.69 1.65 6.1 8.38 12.6 13.41 15.61 2.98 1.77 4.19 3.02 6.07 6.22 1.42 2.41 3.7 8.96 6.74 9.67 3.82 0.9 2.55-4.71 1.47-7.31-2.2-5.28-6.65-8.55-10.67-12.16-3.45-3.1-3.36-6.38-3.11-9.54 0.29-3.64 0.79-7.13-3.6-10.04-2.85-1.88-5.59-1.89-7.6-0.74 0.78-1.19 1.25-2.88 1.2-5.24-0.24-13-16.74-17.42-16.12-4.89 0.4 8.02 8.51 13.86 13.07 11.73zm45.85 59.56c-4.08-2.79-5.17-8.63-8.29-12.12q-0.53-0.61-1.16-1.11c-4.81-3.79-7.86 2.69-9.52 6.01-2.92 5.83-7.07 21.06-2.06 28.23 3.01 4.32 9.69 4.07 13.23 3.23 6.31-1.49 15.17-6.3 15.85-14.04 0.52-5.93-3.83-7.3-8.05-10.2zm34.72-294.37c9.29-5.9 3.49-16.29 9.15-23.61 6.23-8.05 59.15-10.72 31.9-32.07-21.22-16.62-46.29 19.26-64.96 25.08-9.45 2.95-45.96 9.29-50.39 19.67-6.42 15 27.43 6.48 34.53 7.28 10.57 1.2 29.75 10.01 39.77 3.65zm60.5-15.57c-6.36-6.95-5.6-5.88-14.6-5.48-8.58 0.37-39.78 2.57-23.07 16.31 6.17 5.07 13.54 2.21 20.6 3.5 6.11 1.11 16.43 9.89 22.26 8.72 14.1-2.86-0.17-17.57-5.19-23.05zm-493.04 295.79c8.22-5.76 18.31-10.87 11.41-21.69 4.94 7.74-151.23 44.05-100.8 97.87 40.13 42.81 65.41-53.32 84.31-72.1 1.45-1.44 3.22-2.78 5.08-4.08zm-219.9 53.45c-15.59-26.8-15.08 21.21-18.02 17.9 10.25 11.54 31.29 4.91 18.02-17.9zm-35.09 11.59c-14.6-19.87-20.01 14.91-9.76 31.96 14.41 23.98 21.46-16.04 9.76-31.96zm143.15-65.73c-17.13 14.77-37.32 14.63-56.92 22.67-6.92 2.84-42.1 23.14-24.27 38.12 19.75 16.59 42.27-18.24 53.18-29.38 25.32-25.83 58.56-28.63 87.4-44.68-27.8-21.96-42.06-1.69-59.39 13.27z"/>
		</g>
	</g>
</svg>